<?xml version="1.0" encoding="utf-8"?>
<!-- Generator: Adobe Illustrator 16.0.0, SVG Export Plug-In . SVG Version: 6.00 Build 0)  -->
<!DOCTYPE svg PUBLIC "-//W3C//DTD SVG 1.1//EN" "http://www.w3.org/Graphics/SVG/1.1/DTD/svg11.dtd">
<svg version="1.1" id="레이어_1" xmlns="http://www.w3.org/2000/svg" xmlns:xlink="http://www.w3.org/1999/xlink" x="0px"
	 y="0px" width="150px" height="100px" viewBox="0 0 150 100" enable-background="new 0 0 150 100" xml:space="preserve">
<g>
	<g>
		<polyline fill="#2143A3" points="37.418,14.58 31.625,25 22.875,25 16.689,14.58 		"/>
		<polygon fill="#2143A3" points="37.418,74.993 16.689,74.993 21.872,23.556 32.424,23.556 		"/>
		<polygon fill="#2143A3" points="27.054,84.786 16.689,74.993 21.871,65.201 32.235,65.201 37.418,74.993 27.054,84.786 		"/>
	</g>
	<polygon fill="#29ABE2" points="36.803,68.656 17.856,63.409 18.057,61.422 36.594,66.503 	"/>
	<polygon fill="#29ABE2" points="37.204,72.781 17.462,67.322 17.663,65.335 36.995,70.634 	"/>
</g>
<text transform="matrix(1 0 0 1 43.375 31.1255)" fill="#2143A3" font-family="'AdobeGothicStd-Bold-KSCpc-EUC-H'" font-size="12" font-weight="bold">H</text>
<text transform="matrix(1 0 0 1 51.8711 31.1255)" font-family="'AdobeGothicStd-Bold-KSCpc-EUC-H'" font-size="12" font-weight="bold">uman resource</text>
<text transform="matrix(1 0 0 1 43.375 54.5234)" fill="#2143A3" font-family="'AdobeGothicStd-Bold-KSCpc-EUC-H'" font-size="12" font-weight="bold">A</text>
<text transform="matrix(1 0 0 1 51.3311 54.5234)" font-family="'AdobeGothicStd-Bold-KSCpc-EUC-H'" font-size="12" font-weight="bold">utomatic</text>
<text transform="matrix(1 0 0 1 43.375 77.1191)" fill="#2143A3" font-family="'AdobeGothicStd-Bold-KSCpc-EUC-H'" font-size="12" font-weight="bold">P</text>
<text transform="matrix(1 0 0 1 50.5752 77.1191)" font-family="'AdobeGothicStd-Bold-KSCpc-EUC-H'" font-size="12" font-weight="bold">rogram</text>
</svg>
