<?xml version="1.0" encoding="utf-8"?>
<!-- Generator: Adobe Illustrator 16.0.0, SVG Export Plug-In . SVG Version: 6.00 Build 0)  -->
<!DOCTYPE svg PUBLIC "-//W3C//DTD SVG 1.1//EN" "http://www.w3.org/Graphics/SVG/1.1/DTD/svg11.dtd">
<svg version="1.1" id="레이어_1" xmlns="http://www.w3.org/2000/svg" xmlns:xlink="http://www.w3.org/1999/xlink" x="0px"
	 y="0px" width="150px" height="100px" viewBox="0 0 150 100" enable-background="new 0 0 150 100" xml:space="preserve">
<g>
	<g>
		<polyline fill="#2143A3" points="37.418,14.58 31.625,25 22.875,25 16.689,14.58 		"/>
		<polygon fill="#2143A3" points="37.418,74.993 16.689,74.993 21.872,23.556 32.424,23.556 		"/>
		<polyline fill="#2143A3" points="16.689,74.993 37.418,74.993 27.054,89.157 27.054,89.157 16.689,74.993 		"/>
	</g>
	<polygon fill="#29ABE2" points="36.803,68.656 17.856,63.409 18.057,61.422 36.594,66.503 	"/>
	<polygon fill="#29ABE2" points="37.204,72.781 17.462,67.322 17.663,65.335 36.995,70.634 	"/>
</g>
<text transform="matrix(1 0 0 1 43.375 31.125)"><tspan x="0" y="0" fill="#2143A3" font-family="'AdobeGothicStd-Bold-KSCpc-EUC-H'" font-size="12">H</tspan><tspan x="8.496" y="0" font-family="'AdobeGothicStd-Bold-KSCpc-EUC-H'" font-size="12">uman resource</tspan></text>
<text transform="matrix(1 0 0 1 43.375 54.5244)"><tspan x="0" y="0" fill="#2143A3" font-family="'AdobeGothicStd-Bold-KSCpc-EUC-H'" font-size="12">A</tspan><tspan x="7.956" y="0" font-family="'AdobeGothicStd-Bold-KSCpc-EUC-H'" font-size="12">utomatic</tspan></text>
<text transform="matrix(1 0 0 1 43.375 77.1182)"><tspan x="0" y="0" fill="#2143A3" font-family="'AdobeGothicStd-Bold-KSCpc-EUC-H'" font-size="12">P</tspan><tspan x="7.2" y="0" font-family="'AdobeGothicStd-Bold-KSCpc-EUC-H'" font-size="12">rogram</tspan></text>
</svg>
